<mxfile host="app.diagrams.net" modified="2022-04-29T17:10:01.640Z" agent="5.0 (X11)" etag="WKce8onyadXa_2YMIiyU" version="17.5.0" type="github">
  <diagram id="8kuCc-8Snqm_c6d8R0_8" name="Page-1">
    <mxGraphModel dx="652" dy="690" grid="1" gridSize="10" guides="1" tooltips="1" connect="1" arrows="1" fold="1" page="1" pageScale="1" pageWidth="850" pageHeight="1100" math="0" shadow="0">
      <root>
        <mxCell id="0" />
        <mxCell id="1" parent="0" />
        <mxCell id="9KXZqJbIcX6fMSKwKU1S-35" style="edgeStyle=orthogonalEdgeStyle;curved=0;rounded=1;sketch=0;orthogonalLoop=1;jettySize=auto;html=1;exitX=0.5;exitY=1;exitDx=0;exitDy=0;exitPerimeter=0;entryX=0;entryY=0.5;entryDx=0;entryDy=0;" edge="1" parent="1" source="9KXZqJbIcX6fMSKwKU1S-4" target="9KXZqJbIcX6fMSKwKU1S-34">
          <mxGeometry relative="1" as="geometry" />
        </mxCell>
        <mxCell id="9KXZqJbIcX6fMSKwKU1S-38" style="edgeStyle=orthogonalEdgeStyle;curved=0;rounded=1;sketch=0;orthogonalLoop=1;jettySize=auto;html=1;exitX=1;exitY=0.5;exitDx=0;exitDy=0;exitPerimeter=0;entryX=0;entryY=0.5;entryDx=0;entryDy=0;" edge="1" parent="1" target="9KXZqJbIcX6fMSKwKU1S-37">
          <mxGeometry relative="1" as="geometry">
            <mxPoint x="122" y="132.5" as="sourcePoint" />
          </mxGeometry>
        </mxCell>
        <mxCell id="9KXZqJbIcX6fMSKwKU1S-4" value="BAM/SAM" style="shape=cylinder3;whiteSpace=wrap;html=1;boundedLbl=1;backgroundOutline=1;size=15;fillColor=#647687;fontColor=#ffffff;strokeColor=#314354;" vertex="1" parent="1">
          <mxGeometry x="50" y="102" width="78" height="61" as="geometry" />
        </mxCell>
        <mxCell id="9KXZqJbIcX6fMSKwKU1S-43" style="edgeStyle=orthogonalEdgeStyle;curved=0;rounded=1;sketch=0;orthogonalLoop=1;jettySize=auto;html=1;exitX=1;exitY=0.5;exitDx=0;exitDy=0;exitPerimeter=0;" edge="1" parent="1" source="9KXZqJbIcX6fMSKwKU1S-5" target="9KXZqJbIcX6fMSKwKU1S-40">
          <mxGeometry relative="1" as="geometry" />
        </mxCell>
        <mxCell id="9KXZqJbIcX6fMSKwKU1S-5" value="GFF File" style="shape=cylinder3;whiteSpace=wrap;html=1;boundedLbl=1;backgroundOutline=1;size=15;fillColor=#647687;fontColor=#ffffff;strokeColor=#314354;" vertex="1" parent="1">
          <mxGeometry x="53" y="291" width="78" height="61" as="geometry" />
        </mxCell>
        <mxCell id="9KXZqJbIcX6fMSKwKU1S-19" value="" style="shape=image;imageAspect=0;aspect=fixed;verticalLabelPosition=bottom;verticalAlign=top;image=data:image/jpeg,/9j/4AAQSkZJRgABAQECWAJYAAD/2wBDAAMCAgMCAgMDAwMEAwMEBQgFBQQEBQoHBwYIDAoMDAsKCwsNDhIQDQ4RDgsLEBYQERMUFRUVDA8XGBYUGBIUFRT/2wBDAQMEBAUEBQkFBQkUDQsNFBQUFBQUFBQUFBQUFBQUFBQUFBQUFBQUFBQUFBQUFBQUFBQUFBQUFBQUFBQUFBQUFBT/wAARCACHAggDASIAAhEBAxEB/8QAHwAAAQUBAQEBAQEAAAAAAAAAAAECAwQFBgcICQoL/8QAtRAAAgEDAwIEAwUFBAQAAAF9AQIDAAQRBRIhMUEGE1FhByJxFDKBkaEII0KxwRVS0fAkM2JyggkKFhcYGRolJicoKSo0NTY3ODk6Q0RFRkdISUpTVFVWV1hZWmNkZWZnaGlqc3R1dnd4eXqDhIWGh4iJipKTlJWWl5iZmqKjpKWmp6ipqrKztLW2t7i5usLDxMXGx8jJytLT1NXW19jZ2uHi4+Tl5ufo6erx8vP09fb3+Pn6/8QAHwEAAwEBAQEBAQEBAQAAAAAAAAECAwQFBgcICQoL/8QAtREAAgECBAQDBAcFBAQAAQJ3AAECAxEEBSExBhJBUQdhcRMiMoEIFEKRobHBCSMzUvAVYnLRChYkNOEl8RcYGRomJygpKjU2Nzg5OkNERUZHSElKU1RVVldYWVpjZGVmZ2hpanN0dXZ3eHl6goOEhYaHiImKkpOUlZaXmJmaoqOkpaanqKmqsrO0tba3uLm6wsPExcbHyMnK0tPU1dbX2Nna4uPk5ebn6Onq8vP09fb3+Pn6/9oADAMBAAIRAxEAPwD9U6KKKACiiigAooooAKKKKACiiigAooooAKKKKACiiigAooooAKKKKACiiigAooqlrWrW/h/Rr/VLsSm1sreS5lEELSybEUs21EBZmwDhVBJPAGaAPy/+DvhbWvh/pn7PfjGXw14V0TSbi2uJtM8ReHtOa31bVNWa3mW20vU5ywHlXJJ+fDbnjVfkyDWn4f8A2uvipD4B1a8v/HgvUurHSH1C9gitWuPD+oXN1smheVrWK3sIzGHUrc+fJCUDEOGr3Kw/bI+MnjJr+48Gfst6zrHh+3u5LSK41LxHaWFxvjOGEluykxsD1XJx61cP7Tn7R7KwP7I94Q33h/wmljz9f3dAHzZrn7Tvjnx18GfEWkeLfiHP4b0GHS/FNpb69Ha21w/iG8hdEtNPlf7OqfNbz7sxxxPKCGXbiv0g+D67fhJ4IXbsxodiNvp/o6cVwP7NP7QV78dIvGOm+I/BcngHxj4W1JLLVdBmvUvTGJIVkik81FCncpIwOmzrXtgAUAAYFAC0UUUAFFFFABRRRQAUUUUAFFFFABRRRQAUUUUAFFFFABRRRQAUUUUAFFFFABRRRQAUUUUAFFFFABRRRQAUUUUAFFFFABRRRQAUUUUAFFcB8ZvCfj7xf4btLT4eePLf4favHdrLPqNxo0eqLLDsYGIRyMoUlijbs5+XHevHP+FH/tP/APRzemf+G+s//j1AH1FRXy7/AMKP/af/AOjm9M/8N9Z//HqzL/8AZz/afv7gy/8ADViW3AHl23gSyVPyMh5oA+taK+N0+DP7R11qkvhZP2l7mLVbOJdQl1o+ELMpPFISiwCLO1ShjZtwYk+YBgYq3/wzP+0//wBHaSf+EPY//F0AfXtFfIX/AAzP+0//ANHaSf8AhD2P/wAXR/wzP+0//wBHaSf+EPY//F0AfXtFfIX/AAzP+0//ANHaSf8AhD2P/wAXR/wzP+0//wBHaSf+EPY//F0AfXtFfIX/AAzP+0//ANHaSf8AhD2P/wAXR/wzP+0//wBHaSf+EPY//F0AfXtFfIX/AAzP+0//ANHaSf8AhD2P/wAXR/wzP+0//wBHaSf+EPY//F0AfXtFfLkf7Nfx88td/wC1ZrBfHzFfB2mgZ74p3/DNfx6/6Or1r/wjtN/woA+oaK+Xv+Ga/j1/0dXrX/hHab/hR/wzX8ev+jq9a/8ACO03/CgD6hor5e/4Zr+PX/R1etf+Edpv+FH/AAzX8ev+jq9a/wDCO03/AAoA+oaK+VL/APZZ+OepKon/AGrfEShDkfZ/DFjCfxKEZ/GvOtY+HPxKj+E+pfE66/ac8XeHdAtbWa5fTYtMt7uRfKZo9iOWBd5GX5Vx95wooA+6b67Wws57l0kkWFGcpChd2wM4VRyxPYDkmvKPB3h27+L+r+FPiV4q0rxD4RutMS5Ol+EL6/URReYzKl5cxRgf6Q0Jx5bs6xB2GN2Wr44+Bf7Mfx8/aO8C+H/G3xE+M/jbwRrWm6nJdaTpGp6REZIQIwqXJRmT5iHcDcmV5xjNe3f8Mh/Gz/o7DxZ/4I7b/wCLoA9c/Zx/5Bfj7/sd9b/9Kmr1uvgf4NfsufF7WrDxY1j+014n0dbbxPqdrKkWjW7ieVJyHnOX4Ln5iBwM16D/AMMh/Gz/AKOw8Wf+CO2/+LoA6r4SzavpXxm8aXv9vadY+FbvxVqem3OlXrpHNdag1rp8lq9uSuXYRx3Ssm77uGAO019G1+XPjz9n34neHfhz8VPGEnxo8aeJZPBHiptRGnaXpFt9ouruCC2YXuWf5NiSfNgN8kZ4bJFe4fD/APZx+M3xB8BeGvFNv+1R4vs7fXNMttTjt5NGtXaJZolkCFg+CQGxkdcUAfa1FfJH/DIfxs/6Ow8Wf+CO2/8Ai6P+GQ/jZ/0dh4s/8Edt/wDF0AfW9FfJH/DIfxs/6Ow8Wf8Agjtv/i60bH9kn4qx24F5+1H45nnzy8Gn2cS47fKVb+dAH1NRXzD/AMMm/Ev/AKOd8f8A/gJZf/G6P+GTfiX/ANHO+P8A/wABLL/43QB9PUV8w/8ADJvxL/6Od8f/APgJZf8Axuj/AIZN+Jf/AEc74/8A/ASy/wDjdAH09RXzD/wyb8S/+jnfH/8A4CWX/wAbrn/Hn7PXxF8D+FrvWLj9ojx/rUMTRxNZbba33+ZIsefMiQOu3fu4PJUDoTQB9fUV8kf8MQePf+jpPil/4FpR/wAMQePf+jpPil/4FpQB9b0V8kf8MQePf+jpPil/4FpR/wAMQePf+jpPil/4FpQB9b0V8kf8MQePf+jpPil/4FpTW/Yk8dowDftTfFBS3QG7j5oA+uaK+Rf+GJvHPzf8ZT/FD5fvf6ZHx9aP+GJ/HPy/8ZT/ABQ+b7v+mR8/SgD66or5F/4Yn8c/N/xlP8UPl6/6ZHx9acv7Efjx1DL+1L8UWHqLuOgD64or5RsP2I/GEcjG+/ac+LVwmPlW31KKIg+5KNn8qvf8MUa7/wBHI/GT/wAHkH/xigD6gor5f/4Yo13/AKOR+Mn/AIPIP/jFH/DFGu/9HI/GT/weQf8AxigD6gor5f8A+GKNd/6OR+Mn/g8g/wDjFH/DFGu/9HI/GT/weQf/ABigD6gor4/1L9mjxBo3jLRfCQ+PvxXuF1qGe5OoTa6n2i28gKdseIguH3/NuUn5RgjmvQvh7+ytq/gPxlpevXHxz+J/iiGykLtpGuatDNZ3OVK7ZEEIJAzngjkCgD36vNLf9pX4XXnjp/BsHjnR5vEi3D2hsUnyftCLueAPjYZVAOYwdwweK9Lr4p+FOneNPBXwx8H/AAbuvgjc6rreh6yzT+I9UigOiCJbiWU6pDP5jyG4ZGDKuwP5jkEgCgD6/wDCXi3R/HfhrTvEHh/UIdV0XUYRPaXsBJSaM9GXPatevzQ8G/sx/ELwj8I/C3h/TNE8YaYuseEtMg8R2lvq9wu29XX7EzBQZf3Liz+1f6raPLDD2rs5Pgz8QPCvjzUtP0Lw/wCMl1uz8TTNpviBdYml0keFBZMkdl+8nbdJnC7ChkMp8zcByAD78or87bf9mvx14d8Mxanpen+NP+EjsvCPhTWLYS67dT/8VELtv7SLRvMUZ/JVFdSCuwkLjNVtW+FHxcutN1K207QfiBY+M/sWvR+MtettY22+tiSYmy/s8STbWYfIyKixFIg8RYFgaAP0bor85fDvw2+IMeg6dF408CePNb8A28usx2Oi+G7+5srv7ZIlobS7a2kvGkt4htu0RDM6xyfvMKrrjQ0/9nP4o+Kta0G48fDxdday2veHNP1i8sdfuYoJdMGiKNSGIplQo90oSV1XczZIPOaAP0Kor8v/ABZ8Hf2gjp/h+2s4PF6mx0ua08OLC8t1LYXaavdbGklN9EsDG2NoRNOsymJSmByCUAfqBRRRQAUUUUAeT/FjxX4pmt/F3h7wr9itNXttItry1vLuVUUGSdkkDF/lUCNGwfU/SuY/4V98OIPDlz4dguIRoc10LxrdvElyWMgG1W8w3HmDj+EMF9s1Z/aZl8D6t4B+IOieKLK/WCXRbVdTutNSPz5bWS5KJGrMf7+7OcYDEg5ryif/AIJwfs7xzyofhtECrEELqt9gc/8AXagD2jT/AAT4cPiDTvElkss2pWNutpa3kOq3EkaxqhjC7PNMbkKSMspbuTnmqEfwb8Ix6DeaKunXg0y8uFup4f7YviWlUEKwfzt6jBPyqwB7irnwz+F/hr4O+DrTwt4P0r+x9AtpJJYbRZZJQrSNuc7nZmOTzya6nY2cbTn6UAc7/wAIBoX/AAkGka39muv7U0m3S1spv7RutsUSAhVMfmbHwGPLqxOeSaz4PhF4TtfD+o6JHYXa6XqEyT3UJ1e9Jd0OVIkM29ceisAe4NdltOAcHFUde0K28S6HqWjX8UklhqNrLZ3MaMUZopEKOAw5UlWPI5FAGND8O/DtvrGiarHBcC/0W3S0sJTqt0RFEgIVShl2yY3HlwxOeScCqi/CXwkum6xp4s7n7Hq8qT30f9s3mZXRiykN525MFjwhUHOCCMV4j/w7T+AOM/8ACMaxj/sP3f8A8XS/8O0vgFnH/CL6xn/sP3n/AMXQB7wfh34ca/0C9NvP9p0GJIdNf+1brEKIcqCvm4kwe8gYnuTVeH4WeFbfTtcsI7W4W01t1k1CP+2LsmZlcupDGbdH8xJxGVB6HjivDv8Ah2n8AcZ/4RjWMf8AYfu//i6X/h2l8As4/wCEX1jP/YfvP/i6APTfiX4OXwz4Nt9c8G+HZvEPi3w1HAugaa+qXjq3+kJlWUTjzcK8jfvCx+XByOK+ka/Pv4kfsAfAHwH4J1HxGI9Y8I/2a0Ew1z+0bu++yN58YDeQXxJkkLjtuz2r9BKACiiigAooooASvJ/E2rT+Nvg7aXPgzTI4rK+v7aC4tLhUg22JvFjvGG1htbyhMylTuBwR82K9Yr5/+N3wp8ITfs5W/gLxLqGo3Phm91jTrN5bHAmneXU4ikRZSNqtIyozLyFJI5FAF6X4P+EJ9Fs9Hayun06zuHuoIf7avdyyNjcxfz97ZwOGJA7AZNacvw/0G88Tahrk0Nx/a2p27Wd1cNqVyqvEyBGUR+bsT5QBuVQR1BzzXm/wi/Y3+FnwJ8XnxN4N0TULDWRbyWhludVuLlPLfG4bHYjPA57V0fxq/Z78E/tCaXpWneONNu9RtNNme4tVtb2W1Ku6hWJMZG7hRwaAPH/2TdBsPij8K/F2n+I/B914e0yw8c6sLTT/AO3rp5PMDhZMyo6OwQkx5YncVY4Br6Kh+HekN4mufES2d4dWu4Psk10t9dFWi2CMqI/M8sHaoGQoPGc55ryL4Y/sNfB/4PeNtO8W+FdA1Kx13TmkaCabV7mdFLxsjlkZirZV26jqc1N8WP2RdC+L3jS58TX/AI28f6Fc3McURsvD+vG0tFCIEBWPYcEgZPPJJNAHH/s3eC7Px5N8Z/BfiHwJe6T4f0Hx1P5C/wBt3kn2iR7aNCN6srsoiSN/mZgRcAY+XJ9r0X/hO7X9k7Qo5oNK8A+MrexsoJbVXjt7OwjSeNGiUlnVR5ClV5PJGCD08Rt/+CdvhGGWUw/Ej4rRvNJ5kpTxQVLvgDcx8rk4VRk9gPSu1t9D+Hl1/wAE/dH0ZrjW/Fnw8uNPsrJZiotb67ie9jRSwP3fnI3d9oOOcGgDsofhh8PZ9Fn8OWf7/S5roXps4vEN1JI0qqVDbhcGQAKT8obb3I71ut4D0L/hJdP8QGC4Gr2FutrbXB1K5CpGEKBTH5vlsdrMMspPOc5ANed/Dn9i/wCD3wa8bQeJ/CHgqPR9fshLHDeLfXUuwOjI4CySMvKsw5Heuo+M3wJ8H/H/AMO2Oh+NtPutQ0y0uxewR2t5LasJdjJndGQSNrNx0oAtW/wf8I2/hq70CKwuxo91cLdTQf2xesWkUYB8wzb14/hDAHuK1LX4a6NHr2k69BY3p1PSrdLSzuBqF2yxxIpRVKGTY5CsRudWJzkknmsn4Q/Bjwt8C/CbeGfBtjc2Gjm5e8MNzdSXL+a6qrHe5JxhF46ce9cP8Wf2O/AXxo8ZTeKPEV34ph1KaGKBl0rW5LWDbGoVcRgEA4HJ7nmgD0T4Y+E9T8B/FzUdO0fQmtPA19oi3tzqFxdz3EraoLllEQ86Ziq+Sd2FUDPftVj43aAvirxR4a0zXltj4J+yXlxcs+pPYy/blaBbba0csblfLe6yOVztzg7a8x/Zy+APw8+Af7QGp6f4a1vxJNr9/wCFhcSaZrN015F9lF5t85ZmA2tvG3y/TnvXRftNfA/4Y/Hj4jeB9E8f6Vda7e2ml6pd6fYiWSG28sSWazSO8bK+8FogozghnzyBQB0kPhnwrqHiuHXoLhbrXYbb7MktvrMz4h2GPHlLNsPysRuK55znPNVY/g94Sh8LzeHU0+8GjTXQvHt/7XvSxmC7Q3mGbzAMfwhtvfGa5T4T/si/Cb4H+KD4k8EeEF0PWWt3tPtS3tzNmJ8bl2ySMvO0c4zxXsKb45Ayg7lOelAHN2/gPQrXxNY+IIYbhdYsbdbS3n/tO5YJEqGMKYzLsY7SRuZSe5Oeayn+A/g6+8L3mgSaFdXeiXlyl3Pay6neyB5kztbeZiwxnoCB0OMgVw/w/wD2LfhR8L/iFbeOfDuiala+I4JJpI7mbVriaPdKrI+Y2Yqch26jjPtT/i5+x/4E+NnjKTxL4iuvFEGptBHblNJ1qS0h2IMKfLAIBx1PegDqPiZ8O9Wt9MtvEHgfSZLjx7pK2VnpLXt/ceQkCzokqujzLE5EDzYZwWJwck4r6Dr8+viN+xD8Hfhd4TfxXd6548sINMvbGT7Quste7Xa8hRAYXAVwXZVOTwCSORiv0FoAKKKKACvCPjtrnhHRfih4Ll8b2nhay0qGwvLyy8QeIJIIZbW+jmtfLigklYYJVpHO0ZzEpyO/u9eC/HL4Q+APi18WPClv4y02z8T3VloeoyWmg6jZGaHY09mJLoP0VkIjTHUiUntQByMfi/8AZ4hj1xI/EPw1RNcOdVVdRsQL/wCcv+++f958xLfNnkk0g8Wfs7D+xMa/8NB/YZzpX/Exsf8AQDv8zMPz/u/n+b5cc81c/wCGNfgftVv+FQeFdrHCn+zhz9Oad/wxn8ENzL/wp/wtuXkj+zRkfrQBTfxj+zzJca3O3iL4atNrgK6rIdRsd1+C28iY7/3mWAb5s8jNdf8As2zaFP4o8eHwf4x0DW/Bca6dFpvh/wAO3SSwaKwhk875Y8onnOTJheuCTzXNf8Ma/A/arf8ACoPCu1jgN/Zwwf1re/Zx8C+D/hr8TPin4d8IeAl8GwW/9kyz3NqXS0v2kt3YeVERtQx8qxUncWycGgD3+iiigAooooAKKKKAOc1TxVZ6f430PQpbNpb3UYLiaG5AXbEsYUsCTzzuHT0ro65zVPDWn33jfQ9amvGi1GwguIre1DqBKsgXeSCMnG0dPXmujoAKKKKACiiigAooooAKKKKACiiigAooooAKKKKAOH8QeEfDHjDXPEelXdxcf2nqWjx2l7Fb3DwyJal5Njo64KPuL4ZTuBAPGBXPv+zT4Yk0bQdNOteMfK0aeS4hmHiq/E87OysVuJPN3TqCoAWQkAEgcE12tr4ZFv4/1DxB9rVjc6fDZ/ZdvKbJJG35z334xjtXR0AebXHwD8O3XiHxFrDan4mW41y0ks54I/EN4tvbq4UF7eESbIHG0YeMKy5OCMmsnVf2dfCEPg7S9HvPEPiyz0/S7iS5S+bxbfRXMjOclZrjzg8iDsrsQOwr1+vA/wBtbwfqvjb4P6fY6TpVxrEkPiXR7y4t7XT1v3W3ivI3lf7M3yzBUBJjPDYx3oA6+1+DnhS98Uaz4ht9b1y4uNes5rdreLxHdNZpGwVGe2gEnlxOuBh4wCpJwQTWdN+zH4Wk8L2OhtrnjNbWyunvEuV8WagLp2YAFZJ/O3vGNowjEqMnA5NfGPhv4U/FrwXcWupeHPDHiSw0yO91oy6hpumQafqR0271HRnuTbWW5o7WYxxXYijXkrEz7QzYr0PRYfjdd6tp9vrh+Jkuho+3w2lmlms1xB/aM6P/AG2ZBjP2L7OfnwxG4j97QB9RzfA/w5qHizUvE41PxD9o1Oza0a3h1+7WyRHiEe+GASeXG+BkOgDBiWByc1jt+zT4UvPBVv4aXXvGJsre+e7F5F4svxemQrsMbXIm8xkH/PMttBGcZrhv2PfDfxBsfhfq3hP4mRavp2pW9jY2dnLbMILOGxaxjSOOzK4kjmiIdZd5LCVdwbaUA679kPwDe/DH4Lr4dvtPutMNrr2ttbwX0jSTG2fU7l4HZ2JZ90TI25iSd2T1oA6dPgdoEfjO68TC/wDEJvLi0+xtZtrt2bJV8sR7ltvM8tXwud4XduJbOTmsFv2XfCreD18Of2741+yLfG/+1jxdqP2zeY9mw3HneZ5WOfL3bd3OM817BVPWZry30e+l06BbrUI4JGtoJG2rJKFJRSc8AnAz70Aeea9+zn4O8U+IjqusjWNUhe2S1l0e71i5k0uZUUBTJaF/KdshW3Fc7gGznmvT68j0XxJ8S7u08KXOoT+GLCQ2sMmv2C2Fw8nnHmSO3kFxtQKDtBYPkqT0OKm/tr4j+Xro/tTwpvkYf2Qf7KusW678kXP+k/vTs4+Ty/m56cUAerUV5bJrnxDP9g+XqfhdTFj+2N2l3J+0fOM/Zv8ASP3Xy5Hz+Zzg9OKI9c+IQOvb9S8LkS5/sfbpdyPs/wAxx9p/0j978uB8nl85PTigD1KivKf7a+JHlaEP7U8KeZGx/tdv7KusXC+ZkC3H2n90dnGX8z5uenFSya58QftmusmpeGBayIw0hG0y5Mlu24bTcN9oxKNuQQgjycHIHFAHqB6GvKPCPwoi8Q/Au08G+K7a8sRIzvKtpdtb3ELLdNLG8c0TBkYEIwZSCKl8AfELxbf/ABCuPCHiLSrW4FroUOqSeItLt5oLOaeS5njNuiSF9rLHHGxzIT8+cAYrovhF4ovvGXw+0vWNSaNr24MwcwpsX5ZXUYGfRRQBz3/DPfhm2fwzcPrHipV8NjMBk8TXuy4AkMmbsGXFxzx+93fL8vTioI/gN4QvF8SXEXiDxNJF4mYrK0fim8KQt5vmYtMS4tzkEYi2/KCvTitz4/aVe698CPiPpum2k1/qN54b1K3trS3UtJNK9rIqIgHJZmIAx3NfAfwx+GPxN8M6Vc3nhDwVfLdQjSbnTvtPhM+G4ItSt7PVFKtZliHw0sBa7YKHLIpzjNAH3Pcfs6+Gri18LQNq3ixV8OsWt2TxNfK1zmQSf6UwlzcjIx+93fKSvQ4p9v8AAXwxJceLLiLWPE0p8Q+ZFdKPEl4yWpLlmFqPNxbEHgeVtIAx04r5RHij44W6lPP+LM3w3zn+1V0KA+KjqIsN3ki3aLAtDcD/AFhQL5nyb/KO6u8/Y80/4meGviV4us/G+k67pXh/U73V9S0WM2iLbGaTUXe6e9ZFOLh90bwlW8pozJsyQTQB7SP2cfC7WnhuzXW/F3/FPSvLCy+Kr/zZy8gkxdN5ubhcjAEm4BcqODiu0vPh7odx4Fn8IWlodE0GS2a1S30VzYm3jP8AzxaLaYyCcgrgg15/8D/h/ceA/iV8YSY9Vex1XWrXULe+1WaSdrlns4vM8uRzyiPlAq/KgQKAMV7JQB49ffAXwVp9l4VsLzxL4mtf7FmkltGm8XXqS3bPIHK3DGbdcqCAAsm4BSVHBxWo3wF8M3mteKdSGreJTPrsElpdQx+I7wQ2u4qxNtGJNts4wMNGFIBOOpr5x/bo+FOv+PPiRZXWn+HtU1Swk8FanpUd1p3huDWSt5LPCY4wsrAQMyqxEwIK4OCM5rmdV8O/G/wtpN+tlpHjTRL24guLyzt/Cbw3Kya+un6ZFbC8klyZLTKXCszHaxRyxJ2UAfU99+zn4Ubw34f0abXPFkNtpNw8lvcDxVfJc3DyOG2TzebvnGRhVckAcAYq7dfBfwrpus+Jdeu9Z162Ou20lncJP4iultbYSYBa2jMmy3cYG14wrLk4IzXyB8RvBvx68bNbQwW/i9/H0HieK+luNTS3k8Kac0V+TYz2iY8xkWEhmK5/i80Ftor1X4v2Go+KP2c/h4t/8NvEPjHxTI3lGPxTY/2o+i3DwyRT3l7ax7UumRXk8tQm1mZCPLHIAPoL4efCPw58NoIzpiXl/fLE0A1bWb2XUL8ws/meUbmZmkMe75gm7aDyBUXxK+Deg/FS60e51a41iyutKaQ29xouq3GnyFXKF0doXUuhMaEq2R8o4q18HdBtvCvwn8G6JZ/2mbTTdItbKI61GY70rHEqAzKeVfC8jsa7CgDy+4+EPhCx8Xa7qNxrutwaj4itZLN7GXxJdLDGsmAWtYDLthkG35XiAYEnBGTVD/hmvwneeG9N0VNf8YPbaZdy3C3Efi2/+0vI23ck0wm3yKNowjkhcnAGTXzR+3V8HvFHj74oeIrnSPC+p6wt94FtdN024svDcGqK98t5dv5PnyOpsjiSImZSCA+4ZKAVlv4f+PPhLxR4nGjaP4u0oah4gvtT0ODQVt2sZdRl1BPMbUWk5NqYCpUnAIWQj59tAH2FffBHw3J4u1fxBNqniCG81q1ksHtF8QXaWkYeMIWgtxJ5cUgVch0UMDuYHJJrhPil+zzp1n8IYvD+h654ujvLfUI7i1uv+Euu47yVndVeNrl5gzps3ERsxAIyBmvmbx54P/aL8ZyaJJosfjM+PLDW5764ufEMdmNC0+5EGpRRvYYBYK0Lxor4aIGSJn+ctXoP7aml3nir9mXwtL/wgPiTWNZm0mSCDUdTtIb6+0W6mhjj23UDMq+bLl4vtCA+S/zLt3A0AfTA+BXhiTxteeJrltW1Ca6iSKTSr/Vbi40sbQm1lsncwhgY1bcFzuy3U5r0OsLwJFqEHgfw9Fq1oLDVU063W7tBOZxDMIlDp5hJL7WyNxPOM963aACiiigArz34qfB/4efEa80bV/HGk2l5caOzfYby5untzAXKMyhldcgmJDtOR8o4r0KvnP8Abb8Gap408IeAE07R7rWYdP8AF1vfX0dpo8erGG3WzvEMjWjnbKoeSMYPTcD2oA9AtfgV8NbnXvEus2+jW82p+KbKS31SZL2ZvtVvKRvwvmYUEqPmQA8cGqFx+yx8Kv8AhG9G0abwvGukaHcS3tlE19cgQSOVZ3LeblslF4YkDFfFXgj4V/F7wPJodzZeHfFWjaEtvLYanfaBYw2urPpcuuXtx+4twWW2lIlhcwx5McWdvPFdjc6b8ePE2k3Nh4ut/iHeTXWhSW+lWWnx2SWVzayW96ko1YdPtJX7PlVIYMV2AEvQB9dT/s+/D6+8U6/4mk8PRyaz4gspLDUbr7VPi4gkRUddofauVVRuUA8cGt34cfD3wz8MfC8Wh+ErFNO0VJHlSFJ5JhvY/Mdzsx6+9eT/ALO/hfxtrnwf8ReFPisdYtPEDXU1lc3NncfZrZ7Vo08k6dJFteKIRFUOT5iyLLluhrc/Y98J6r4F/Zq8CaBremz6PqlhZvDNY3Q/eRfvpCobk87SD170AeyUUUUAFFFFABRRRQBw3iDwzqF98WPCOtQ24fTtPtL2K4m3qCjSBNgxnJztPT0rua4jxB4o1DT/AIreE9DhmRdO1C0vZbiIoCzNGEKEHqMbj0rt6ACiiigAooooAKKKKACiiigAooooAKK881K4+Jq/HDSYbG20FvhSdKdr+4maT+0xf7n2iMZ2+Vt8vqM5LUfE24+JkPijwMvgS20GfQX1LHid9XaQTx2WU5ttpAMmN/3sjgUAeh0V5/8AHKf4lW/w/uH+E9toV14x8+IRR+ImcWnlbv3hOwg7sdOa72Hf5KebgSbRu29M45xQByll4dvYfipquuPGo0+40m2tI5N43GRJZWYY64w68111clZvq/8AwtLVEk+1f2GNKtzDuB8jz/Nl37T/AHtuzPtiutoAKKKKACiiigAooooAKw/HX2Y+CPEP22WSCz/s648+WEZdI/KbcVHcgZxW5VTV7eW80m9ggWBp5YHSNbpN8RYqQA691z1HcZoA+EfAPhf9q5vAPhdtF+InwzbRm0m0awa60a4MxtzAhiL5Q/Ns25981vf8Ir+2B/0UL4Wf+CW4/wDjdezaN4X+M9j4AeGez+HSeKreSGGzgs5r6PTDbqgDlhs3owI+VFBUDAzW5beHfiafFWhpcQ+Dx4aa0jOryxT3ZvY7nY3mLbKU2NHv27S5Dbc5GcUAfPv/AAiv7YH/AEUL4Wf+CW4/+N16/wDB3T/iXpvh28j+KWteH9c1xrotbT+HLV7eBLfYuFZXAJfdvOfQir0eg/Gn/hH9WaSz+Hw11bmMabGt3f8A2V4Mt5hnby94kxt2hAR1z2rUPh74m/2/4cUQ+D/7De2iOuyefd/ao7jnzRaDZsaMfLtMhB65FAG1Xj/xk1T48WPiK0T4V+H/AATq2hG0VrmbxNezQ3C3G98qqowGzZsOeuS3pXbW+g/GM+Hdcae08AjXlmjGkRx3V8bSSLcfMNyxTerhcbdgIznPFXIfD/xT/tjw0s1v4LGkvbodeeO4vPtEU2W3i0BTayY24MhBzuz2oA87/Zp1f4u3/wAZPE8PxW1Dwtpc8egWj2XhXwzqEs6BTcThr10fO0sR5e7PPlgY4zX0D4A1fRtd8J2V94ftRZ6TKZPJhEIi24kYN8o4GWDH8a4j4Z/D/wATaf8AEfxL4q8XaZ4Zhvp7OHStOvtBuruSeSyjmmkVLhJQEVgZN2UzyzAnAFdt8P8AwevgPwjY6Gl016tqZD57JsLbpGfpk4xux+FAHRUUUUAFFFFABRRRQAUUUUAFFFFABRRRQAUUUUAFc78QNY0bQfC1ze+ILUXulo8SyQmETZZpFVDtPXDFT7YzXRVznxB8HL498K3OivdtZLNJE/nKgcjZIr4xkdduPxoA6OiiigAooooAKKKKACiiigAooooAKKKKACiiigAooooA5zVPEGlWfjbQ9IuLMyatewXElrc+UpESIF8wbicrnI4HXHNdHXOap4Rt9S8caF4ge7eO40yC4hjtgBtlEoUEnvxt7etdHQAUV578Fbj4mXGgaufilbaDa6wNVnXT18Ps7RNYYTyTJvJPm535xxwKTwRcfE2T4m+OI/FVtoMXgRGt/wDhGJdPLm9cbT532nJK/e27doHGaAPQ6K88urj4mj45WUNvbaCfhOdILXNw7Sf2oNQ3tgKM7fK27O2c55r0OgAooooAKKKKACiiigAooooAKKKKAOTs/Et5P8UNU0Fmj+wW+lW94ihfn8x5ZVbJz0wg4x611lc7a+I4ZvH2oaELEJcW+nw3bXmRl1eSRQmMZ4KE9f4q6KgAooooAKKKKACiiigAooooAK8L/bA8ceJvA3w68Py+FNUvdI1LVPE+maS9xpsVrJdeTPNskWIXQ8kOR0MmFB6kV7pWF408B+HPiNob6L4q0HTvEekO6yNY6papcQllOVYo4IyOxoA+NPh7+1x4/sZorPWwmva6L+98OppWovbWWy+fVbaCza8uLdXiBSCcFzb7lbcAqlum9q37cHiLXvC3i1tE8MaPo9x4btpbPW9Q1DxHFF9lvmnvLWI2KyRbLtBLaFxuMZcMFVS4K19IxfAr4cweHB4fi8CeHI9DEDWv9mppcIt/KMqylNgXbgyIj9PvKD1GabP8B/hvdf2QZvAXhuT+x7c2mn7tKgP2SEhgY4/l+Vfnfgf3m9TQB458Fv2iPEHxg/Zf17xg2qaP4N1TS7H7K2r68dzWc8Vuhnu762ARYcljKkYYgxtGxID7R237KnizxX40+H+o6r4k1aXX9Pl1OT/hH9WvbOKzvb3TdkZjnuIIgFjLuZSg2qxjMZZQxIrvJPhP4Kk0vVtMfwnoradq8ENrqFobGLyryKFBHCkq7cOqIFVQ2cKABwBU/gP4Z+Evhdptxp3g/wANaV4XsLiY3M1tpFnHbRySlQpdlQAFsKoz6AUAdIehrhvgjpV/onwx0iy1O2mtL6Mz+ZDcffXMzkZ/Ag/jXcnpXJ/CnxXeeNvAem61fpDHd3JlDrApCDbK6DAJJ6KO9AHW0UUUAFFFFABRRRQAUUUUAFFFFABRRRQAUUUUAFcH8btJ1DW/hxqFnpdtNd3rzWxSK3++QJ4y2PoAT+Fd5XIfFbxZeeCPA95rFgkMl1DLAirOpKYeZEOQCOzHvQB19FFFABRRRQAUUUUAFFFFABRRRQAUUUUAFFFFABRRRQBwfiLQdQvPi94O1WG1aTTrOzvo7i4BG2NnEewEZzzg9B2rvK4zXvFV/p/xQ8K6DCYhp+o2t5NOGTL7owhTBzwPmOeK7OgAooooAKKKKACiiigAooooAKKKKACiiigAooooA561m0RvHl/FFFjxEthC1xJtbm3LyeWM9PvB+OvNdDXOWuj6dH4/1DU0v9+rTafBby2O9fkiWSQrJt+8MlmGTx8tdHQAUUUUAFFFFABRXnXxx+IV38P/AAzpH9mZGs65rdjodg3kLOqSzygF2jaSPcqoHZtrZABbB2kV0knxC8MQ+LT4WfxBpq+JBB9pOkm6T7SIgM7zHnIXHOcUAdDRXln7MvjDxB8RPg/pfirxDefbJtauLq+sG+zJARp7XEn2PKrxkwCJifV69ToAKKKKACiiigAooooASue+H95oV/4SsZ/DUK2+isZPIjSIxgYkYN8p5HzBq6Gua+HHhB/Afg2w0N7pb1rUyEzqmwNukZ+mTjG7HXtQB01FFFABRRRQAUUUUAFFFeeXnxAubj49ab4GsmaOG20CXXNSLWyyI6PMsFuok8wNG25JmxsYMFbkFeQD0OiiigAooooAKKKKACuc+IF5oNh4VuZvE0K3GjrJEJY3iMgLGRQnyjn75WujrmPiR4Pfx54RutFS6WyaaSF/OaPeBslV8YyOu3HXvQB09FFFABRRRQAUUUUAFFFedfHX4hXfw98H2Emm711jWNXsdEsJEt0uPLnuZ1jDmJ5I96gFicNkAFsEKaAPRaK85+IHxcm8E+KPD+kxeGtb1NL+9NvNcWdg0qbfss8wEbBhlw0S5B7bvSsnR/G3iHX/ANpvWfDtpfr/AMIfofhi1ur+za3QOuo3U8nkr5n3uIYJGK9P3iUAeuUUUUAFFFFABRRRQBzeqatolv440LT7q1Emu3MFw9lceSGMaKF80b/4c5Xjviukrm9V8GrqnjnQfEZuzG2lwXEAtvLyJfNCjO7PGNvoc5rpKACiiigAooooAKKKKACiiigAooooAKKKKACiiigDnbXwq1v4+v8AxH9pVkutPhsRb7OVMckj7t2ec78Yx2roqKKACiiigAooooA5zxh8PPDvj6bQ5PEGmR6m2iagmq6f5rsBBdIrKkoAIBIDsPmyOelaWv6BY+J9Fv8ASdRiaawv4HtriOOV4meNhhl3oQwyCRwRWjRQBl+F/DOmeC/Del6Bott9i0jS7aOzs7UOziGGNQqICxJwqgAZPQVqUUUAFFFFABRRRQAUUUUAJXPfD/wvceDfCVjpF1ftqk9uZC104IL7pGYdSTwGA69q6KigAooooAKKKKACiiigArnLf4d+HLXx9d+No9LjXxTdWMemTaluYu1sjl1jwTtADMTwM81Qh+NHw/uPGE3hOLxv4dfxRDL5EmijVYPtiyf3DDu37vbGa6LQfEGl+KNLj1LRtRtdV0+RnRLqymWWJmR2RwGUkEq6sp9CpHagDQooooAKKKKACiiigArnPiD4XuPGXhW50m11BtLnmkicXSAkrskVyOCDyFI6966OigAooooAKKKKACiiigArnfGPw+8PfEAaMPEOmR6mNH1GLVrASswEF1GGEco2kZIDtwcjnpXRUUAV7nT7a8mtZp7eOaW1kM0DuoJicoyFlPY7XdcjsxHesXw58PtB8J694i1vS7JoNV8QTx3Op3L3EsrXMkaCNCd7ELtQBQFAAAA7CuiooAKKKKACiiigAooooA5nVvCMupePNA8Qre+VDplvcwva7SfNMoUA5zgY2+h6101FFABRRRQAUUUUAFFFFABRRRQAUUUUAFFFFABRRRQAUUUUAFFFFABRRRQAUUUUAFFFFABRRRQAUUUUAFFFFABRRRQAUUUUAFFFFABRRRQB+UXi7xnZXX7SXiPwPZeLPtHiz/hbltqtn4DbQYhHfbLm1czPqjDfCAkbttVv4Nu0h609Y8deMLX4b+LfE9j478TabceD/C66zp9pp+pyW1pLcN4p1WFnuIU+WUGKGOMhhjaOmcEFFAHr37M/xi1rxJ+2R4v8LyeJda8RQwvrb32nXl/Mg0YJeRiCOW2cyW7gBtkUlpIDsP71A3T7soooAKKKKACiiigAooooAKKKKACiiigAooooAKKKKACiiigAooooAKKKKACiiigAooooAKKKKACiiigAooooAKKKKACiiigD/9k=;" vertex="1" parent="1">
          <mxGeometry x="40" y="418" width="385.19" height="100" as="geometry" />
        </mxCell>
        <mxCell id="9KXZqJbIcX6fMSKwKU1S-31" value="&lt;font style=&quot;font-size: 21px&quot;&gt;Counting Beta Flow&lt;/font&gt; " style="text;html=1;strokeColor=none;fillColor=none;align=center;verticalAlign=middle;whiteSpace=wrap;rounded=0;fontSize=12;" vertex="1" parent="1">
          <mxGeometry x="222.59" y="40" width="250" height="30" as="geometry" />
        </mxCell>
        <mxCell id="9KXZqJbIcX6fMSKwKU1S-39" style="edgeStyle=orthogonalEdgeStyle;curved=0;rounded=1;sketch=0;orthogonalLoop=1;jettySize=auto;html=1;exitX=1;exitY=0.5;exitDx=0;exitDy=0;entryX=0.5;entryY=1;entryDx=0;entryDy=0;" edge="1" parent="1" source="9KXZqJbIcX6fMSKwKU1S-34" target="9KXZqJbIcX6fMSKwKU1S-37">
          <mxGeometry relative="1" as="geometry" />
        </mxCell>
        <mxCell id="9KXZqJbIcX6fMSKwKU1S-34" value="&lt;div&gt;Make SAM&lt;/div&gt;" style="shape=hexagon;perimeter=hexagonPerimeter2;whiteSpace=wrap;html=1;fixedSize=1;fillColor=#e51400;fontColor=#ffffff;strokeColor=#B20000;" vertex="1" parent="1">
          <mxGeometry x="124" y="167" width="79" height="33" as="geometry" />
        </mxCell>
        <mxCell id="9KXZqJbIcX6fMSKwKU1S-50" style="edgeStyle=orthogonalEdgeStyle;curved=0;rounded=1;sketch=0;orthogonalLoop=1;jettySize=auto;html=1;exitX=1;exitY=0.5;exitDx=0;exitDy=0;entryX=0;entryY=0.5;entryDx=0;entryDy=0;fontSize=12;" edge="1" parent="1" source="9KXZqJbIcX6fMSKwKU1S-37" target="9KXZqJbIcX6fMSKwKU1S-47">
          <mxGeometry relative="1" as="geometry" />
        </mxCell>
        <mxCell id="9KXZqJbIcX6fMSKwKU1S-37" value="Filter with Rich script" style="shape=hexagon;perimeter=hexagonPerimeter2;whiteSpace=wrap;html=1;fixedSize=1;rounded=0;sketch=0;fillColor=#e51400;fontColor=#ffffff;strokeColor=#B20000;" vertex="1" parent="1">
          <mxGeometry x="190" y="107" width="80" height="50" as="geometry" />
        </mxCell>
        <mxCell id="9KXZqJbIcX6fMSKwKU1S-74" style="edgeStyle=orthogonalEdgeStyle;curved=0;rounded=1;sketch=0;orthogonalLoop=1;jettySize=auto;html=1;exitX=1;exitY=0.5;exitDx=0;exitDy=0;entryX=1;entryY=0.5;entryDx=0;entryDy=0;fontSize=12;" edge="1" parent="1" source="9KXZqJbIcX6fMSKwKU1S-40" target="9KXZqJbIcX6fMSKwKU1S-57">
          <mxGeometry relative="1" as="geometry" />
        </mxCell>
        <mxCell id="9KXZqJbIcX6fMSKwKU1S-40" value="Read gene names into counts table" style="rounded=1;whiteSpace=wrap;html=1;sketch=0;" vertex="1" parent="1">
          <mxGeometry x="160" y="300" width="101" height="44" as="geometry" />
        </mxCell>
        <mxCell id="9KXZqJbIcX6fMSKwKU1S-44" value="" style="shape=curlyBracket;whiteSpace=wrap;html=1;rounded=1;sketch=0;" vertex="1" parent="1">
          <mxGeometry x="386" y="72.5" width="20" height="120" as="geometry" />
        </mxCell>
        <mxCell id="9KXZqJbIcX6fMSKwKU1S-46" value="&lt;font style=&quot;font-size: 18px&quot;&gt;For Each Pared Set of Reads&lt;/font&gt;" style="text;html=1;strokeColor=none;fillColor=none;align=center;verticalAlign=middle;whiteSpace=wrap;rounded=0;sketch=0;" vertex="1" parent="1">
          <mxGeometry x="450" y="34" width="270" height="30" as="geometry" />
        </mxCell>
        <mxCell id="9KXZqJbIcX6fMSKwKU1S-51" value="" style="edgeStyle=orthogonalEdgeStyle;curved=0;rounded=1;sketch=0;orthogonalLoop=1;jettySize=auto;html=1;fontSize=12;" edge="1" parent="1" source="9KXZqJbIcX6fMSKwKU1S-47" target="9KXZqJbIcX6fMSKwKU1S-44">
          <mxGeometry relative="1" as="geometry" />
        </mxCell>
        <mxCell id="9KXZqJbIcX6fMSKwKU1S-47" value="&lt;font style=&quot;font-size: 12px&quot;&gt;Pair Reads&lt;br&gt;&lt;/font&gt;" style="rounded=1;whiteSpace=wrap;html=1;sketch=0;fontSize=18;fillColor=#f0a30a;fontColor=#000000;strokeColor=#BD7000;" vertex="1" parent="1">
          <mxGeometry x="287" y="116" width="75" height="32" as="geometry" />
        </mxCell>
        <mxCell id="9KXZqJbIcX6fMSKwKU1S-77" style="edgeStyle=orthogonalEdgeStyle;curved=0;rounded=1;sketch=0;orthogonalLoop=1;jettySize=auto;html=1;exitX=1;exitY=0.5;exitDx=0;exitDy=0;entryX=0;entryY=0.25;entryDx=0;entryDy=0;entryPerimeter=0;fontSize=12;" edge="1" parent="1" source="9KXZqJbIcX6fMSKwKU1S-52" target="9KXZqJbIcX6fMSKwKU1S-76">
          <mxGeometry relative="1" as="geometry" />
        </mxCell>
        <mxCell id="9KXZqJbIcX6fMSKwKU1S-94" style="edgeStyle=orthogonalEdgeStyle;curved=0;rounded=1;sketch=0;orthogonalLoop=1;jettySize=auto;html=1;exitX=1;exitY=0.5;exitDx=0;exitDy=0;entryX=0;entryY=0.5;entryDx=0;entryDy=0;fontSize=12;" edge="1" parent="1" source="9KXZqJbIcX6fMSKwKU1S-52" target="9KXZqJbIcX6fMSKwKU1S-89">
          <mxGeometry relative="1" as="geometry">
            <Array as="points">
              <mxPoint x="570" y="101" />
              <mxPoint x="570" y="184" />
            </Array>
          </mxGeometry>
        </mxCell>
        <mxCell id="9KXZqJbIcX6fMSKwKU1S-97" style="edgeStyle=orthogonalEdgeStyle;curved=0;rounded=1;sketch=0;orthogonalLoop=1;jettySize=auto;html=1;exitX=1;exitY=0.5;exitDx=0;exitDy=0;entryX=0;entryY=0.25;entryDx=0;entryDy=0;fontSize=12;entryPerimeter=0;" edge="1" parent="1" source="9KXZqJbIcX6fMSKwKU1S-52" target="9KXZqJbIcX6fMSKwKU1S-90">
          <mxGeometry relative="1" as="geometry" />
        </mxCell>
        <mxCell id="9KXZqJbIcX6fMSKwKU1S-52" value="Check R1Present &amp;amp; Aligned" style="rounded=1;whiteSpace=wrap;html=1;sketch=0;fontSize=12;" vertex="1" parent="1">
          <mxGeometry x="402" y="90" width="156" height="22" as="geometry" />
        </mxCell>
        <mxCell id="9KXZqJbIcX6fMSKwKU1S-78" style="edgeStyle=orthogonalEdgeStyle;curved=0;rounded=1;sketch=0;orthogonalLoop=1;jettySize=auto;html=1;exitX=1;exitY=0.5;exitDx=0;exitDy=0;entryX=0;entryY=0.75;entryDx=0;entryDy=0;entryPerimeter=0;fontSize=12;" edge="1" parent="1" source="9KXZqJbIcX6fMSKwKU1S-53" target="9KXZqJbIcX6fMSKwKU1S-76">
          <mxGeometry relative="1" as="geometry" />
        </mxCell>
        <mxCell id="9KXZqJbIcX6fMSKwKU1S-92" style="edgeStyle=orthogonalEdgeStyle;curved=0;rounded=1;sketch=0;orthogonalLoop=1;jettySize=auto;html=1;exitX=1;exitY=0.5;exitDx=0;exitDy=0;entryX=0;entryY=0.5;entryDx=0;entryDy=0;fontSize=12;" edge="1" parent="1" source="9KXZqJbIcX6fMSKwKU1S-53" target="9KXZqJbIcX6fMSKwKU1S-91">
          <mxGeometry relative="1" as="geometry">
            <Array as="points">
              <mxPoint x="610" y="157" />
              <mxPoint x="610" y="101" />
            </Array>
          </mxGeometry>
        </mxCell>
        <mxCell id="9KXZqJbIcX6fMSKwKU1S-53" value="Check R2 Present &amp;amp;  Aligned" style="rounded=1;whiteSpace=wrap;html=1;sketch=0;fontSize=12;" vertex="1" parent="1">
          <mxGeometry x="403" y="146" width="155" height="22" as="geometry" />
        </mxCell>
        <mxCell id="9KXZqJbIcX6fMSKwKU1S-56" value="Output For One Gene" style="swimlane;fontStyle=0;childLayout=stackLayout;horizontal=1;startSize=26;fillColor=none;horizontalStack=0;resizeParent=1;resizeParentMax=0;resizeLast=0;collapsible=1;marginBottom=0;rounded=0;sketch=0;fontSize=12;" vertex="1" parent="1">
          <mxGeometry x="707" y="62" width="160" height="156" as="geometry" />
        </mxCell>
        <mxCell id="9KXZqJbIcX6fMSKwKU1S-57" value="Name" style="text;strokeColor=none;fillColor=none;align=left;verticalAlign=top;spacingLeft=4;spacingRight=4;overflow=hidden;rotatable=0;points=[[0,0.5],[1,0.5]];portConstraint=eastwest;rounded=0;sketch=0;fontSize=12;" vertex="1" parent="9KXZqJbIcX6fMSKwKU1S-56">
          <mxGeometry y="26" width="160" height="26" as="geometry" />
        </mxCell>
        <mxCell id="9KXZqJbIcX6fMSKwKU1S-58" value="Total Matches" style="text;strokeColor=none;fillColor=none;align=left;verticalAlign=top;spacingLeft=4;spacingRight=4;overflow=hidden;rotatable=0;points=[[0,0.5],[1,0.5]];portConstraint=eastwest;rounded=0;sketch=0;fontSize=12;" vertex="1" parent="9KXZqJbIcX6fMSKwKU1S-56">
          <mxGeometry y="52" width="160" height="26" as="geometry" />
        </mxCell>
        <mxCell id="9KXZqJbIcX6fMSKwKU1S-59" value="R1 Solo Matches" style="text;strokeColor=none;fillColor=none;align=left;verticalAlign=top;spacingLeft=4;spacingRight=4;overflow=hidden;rotatable=0;points=[[0,0.5],[1,0.5]];portConstraint=eastwest;rounded=0;sketch=0;fontSize=12;" vertex="1" parent="9KXZqJbIcX6fMSKwKU1S-56">
          <mxGeometry y="78" width="160" height="26" as="geometry" />
        </mxCell>
        <mxCell id="9KXZqJbIcX6fMSKwKU1S-72" value="R2 Solo Matches" style="text;strokeColor=none;fillColor=none;align=left;verticalAlign=top;spacingLeft=4;spacingRight=4;overflow=hidden;rotatable=0;points=[[0,0.5],[1,0.5]];portConstraint=eastwest;rounded=0;sketch=0;fontSize=12;" vertex="1" parent="9KXZqJbIcX6fMSKwKU1S-56">
          <mxGeometry y="104" width="160" height="26" as="geometry" />
        </mxCell>
        <mxCell id="9KXZqJbIcX6fMSKwKU1S-73" value="Pair Matches" style="text;strokeColor=none;fillColor=none;align=left;verticalAlign=top;spacingLeft=4;spacingRight=4;overflow=hidden;rotatable=0;points=[[0,0.5],[1,0.5]];portConstraint=eastwest;rounded=0;sketch=0;fontSize=12;" vertex="1" parent="9KXZqJbIcX6fMSKwKU1S-56">
          <mxGeometry y="130" width="160" height="26" as="geometry" />
        </mxCell>
        <mxCell id="9KXZqJbIcX6fMSKwKU1S-80" style="edgeStyle=orthogonalEdgeStyle;curved=0;rounded=1;sketch=0;orthogonalLoop=1;jettySize=auto;html=1;exitX=1;exitY=0.5;exitDx=0;exitDy=0;exitPerimeter=0;fontSize=12;" edge="1" parent="1" source="9KXZqJbIcX6fMSKwKU1S-76" target="9KXZqJbIcX6fMSKwKU1S-58">
          <mxGeometry relative="1" as="geometry">
            <mxPoint x="665" y="126" as="sourcePoint" />
          </mxGeometry>
        </mxCell>
        <mxCell id="9KXZqJbIcX6fMSKwKU1S-82" style="edgeStyle=orthogonalEdgeStyle;curved=0;rounded=1;sketch=0;orthogonalLoop=1;jettySize=auto;html=1;exitX=1;exitY=0.5;exitDx=0;exitDy=0;exitPerimeter=0;entryX=0;entryY=0.5;entryDx=0;entryDy=0;fontSize=12;" edge="1" parent="1" source="9KXZqJbIcX6fMSKwKU1S-76" target="9KXZqJbIcX6fMSKwKU1S-73">
          <mxGeometry relative="1" as="geometry">
            <mxPoint x="665" y="126" as="sourcePoint" />
          </mxGeometry>
        </mxCell>
        <mxCell id="9KXZqJbIcX6fMSKwKU1S-76" value="" style="shape=or;whiteSpace=wrap;html=1;rounded=0;glass=1;sketch=0;fontSize=12;" vertex="1" parent="1">
          <mxGeometry x="594" y="116" width="10" height="20" as="geometry" />
        </mxCell>
        <mxCell id="9KXZqJbIcX6fMSKwKU1S-84" style="edgeStyle=orthogonalEdgeStyle;curved=0;rounded=1;sketch=0;orthogonalLoop=1;jettySize=auto;html=1;exitX=1;exitY=0.5;exitDx=0;exitDy=0;entryX=0;entryY=0.75;entryDx=0;entryDy=0;fontSize=12;entryPerimeter=0;" edge="1" parent="1" target="9KXZqJbIcX6fMSKwKU1S-88" source="9KXZqJbIcX6fMSKwKU1S-53">
          <mxGeometry relative="1" as="geometry">
            <mxPoint x="568" y="166.0000000000001" as="sourcePoint" />
          </mxGeometry>
        </mxCell>
        <mxCell id="9KXZqJbIcX6fMSKwKU1S-86" style="edgeStyle=orthogonalEdgeStyle;curved=0;rounded=1;sketch=0;orthogonalLoop=1;jettySize=auto;html=1;exitX=1;exitY=0.5;exitDx=0;exitDy=0;exitPerimeter=0;fontSize=12;entryX=0;entryY=0.5;entryDx=0;entryDy=0;" edge="1" parent="1" source="9KXZqJbIcX6fMSKwKU1S-88" target="9KXZqJbIcX6fMSKwKU1S-59">
          <mxGeometry relative="1" as="geometry">
            <mxPoint x="675" y="191" as="sourcePoint" />
            <mxPoint x="717" y="192" as="targetPoint" />
          </mxGeometry>
        </mxCell>
        <mxCell id="9KXZqJbIcX6fMSKwKU1S-87" style="edgeStyle=orthogonalEdgeStyle;curved=0;rounded=1;sketch=0;orthogonalLoop=1;jettySize=auto;html=1;exitX=1;exitY=0.5;exitDx=0;exitDy=0;exitPerimeter=0;entryX=0;entryY=0.5;entryDx=0;entryDy=0;fontSize=12;" edge="1" parent="1" source="9KXZqJbIcX6fMSKwKU1S-88" target="9KXZqJbIcX6fMSKwKU1S-58">
          <mxGeometry relative="1" as="geometry">
            <mxPoint x="675" y="191" as="sourcePoint" />
            <mxPoint x="717" y="269.9999999999999" as="targetPoint" />
          </mxGeometry>
        </mxCell>
        <mxCell id="9KXZqJbIcX6fMSKwKU1S-88" value="" style="shape=or;whiteSpace=wrap;html=1;rounded=0;glass=1;sketch=0;fontSize=12;" vertex="1" parent="1">
          <mxGeometry x="620" y="180" width="10" height="20" as="geometry" />
        </mxCell>
        <mxCell id="9KXZqJbIcX6fMSKwKU1S-89" value="" style="ellipse;whiteSpace=wrap;html=1;aspect=fixed;rounded=0;glass=1;sketch=0;fontSize=12;" vertex="1" parent="1">
          <mxGeometry x="611" y="179" width="9" height="9" as="geometry" />
        </mxCell>
        <mxCell id="9KXZqJbIcX6fMSKwKU1S-90" value="" style="shape=or;whiteSpace=wrap;html=1;rounded=0;glass=1;sketch=0;fontSize=12;" vertex="1" parent="1">
          <mxGeometry x="638" y="86" width="10" height="20" as="geometry" />
        </mxCell>
        <mxCell id="9KXZqJbIcX6fMSKwKU1S-91" value="" style="ellipse;whiteSpace=wrap;html=1;aspect=fixed;rounded=0;glass=1;sketch=0;fontSize=12;" vertex="1" parent="1">
          <mxGeometry x="629" y="96" width="9" height="9" as="geometry" />
        </mxCell>
      </root>
    </mxGraphModel>
  </diagram>
</mxfile>
